<svg width="25" height="25" viewBox="0 0 25 25" fill="none" xmlns="http://www.w3.org/2000/svg">
<path d="M18.2512 3.31933C19.2159 2.32285 20.81 2.30996 21.7907 3.29071C22.7446 4.24458 22.7624 5.78555 21.8307 6.76116L19.0521 9.67092C18.8343 9.89899 18.7254 10.013 18.6583 10.1466C18.5988 10.2648 18.5635 10.3937 18.5542 10.5257C18.5438 10.6748 18.5793 10.8284 18.6502 11.1357L20.3781 18.6232C20.4509 18.9387 20.4872 19.0964 20.4755 19.2489C20.4651 19.3839 20.4274 19.5154 20.3646 19.6355C20.2937 19.7711 20.1793 19.8855 19.9504 20.1144L19.5796 20.4852C18.9735 21.0913 18.6704 21.3944 18.3602 21.4492C18.0894 21.4972 17.8107 21.4314 17.5899 21.2674C17.337 21.0796 17.2014 20.673 16.9304 19.8598L14.9206 13.8305L11.5753 17.1758C11.3756 17.3755 11.2758 17.4753 11.209 17.5929C11.1498 17.6971 11.1098 17.811 11.091 17.9293C11.0697 18.0629 11.0853 18.2032 11.1164 18.4839L11.3002 20.1373C11.3313 20.4179 11.3469 20.5583 11.3256 20.6918C11.3068 20.8101 11.2668 20.924 11.2076 21.0282C11.1408 21.1458 11.041 21.2456 10.8413 21.4453L10.6438 21.6428C10.1708 22.1159 9.93422 22.3524 9.67137 22.4209C9.44083 22.481 9.1964 22.4568 8.98212 22.3527C8.73781 22.2339 8.55226 21.9556 8.18116 21.399L6.61284 19.0465C6.54654 18.947 6.51339 18.8973 6.4749 18.8522C6.44071 18.8121 6.40341 18.7748 6.36335 18.7407C6.31825 18.7022 6.26853 18.669 6.16908 18.6027L3.81659 17.0344C3.25995 16.6633 2.98162 16.4778 2.8629 16.2334C2.75877 16.0192 2.73457 15.7747 2.79465 15.5442C2.86315 15.2813 3.09968 15.0448 3.57274 14.5717L3.77025 14.3742C3.96993 14.1746 4.06978 14.0747 4.18736 14.0079C4.29152 13.9488 4.40547 13.9088 4.52376 13.8899C4.6573 13.8686 4.79764 13.8842 5.07831 13.9154L6.7317 14.0991C7.01237 14.1303 7.1527 14.1459 7.28624 14.1246C7.40454 14.1057 7.51849 14.0658 7.62265 14.0066C7.74023 13.9398 7.84007 13.84 8.03976 13.6403L11.3851 10.2949L5.3558 8.28519C4.54257 8.01411 4.13596 7.87857 3.94816 7.62566C3.78418 7.40482 3.7184 7.12619 3.76631 6.85533C3.82118 6.54514 4.12425 6.24207 4.7304 5.63592L5.10117 5.26515C5.33006 5.03626 5.44451 4.92181 5.5801 4.85092C5.70011 4.78818 5.83161 4.75046 5.96664 4.74006C6.11919 4.72831 6.2769 4.76471 6.59231 4.8375L14.0514 6.55883C14.3614 6.63036 14.5164 6.66613 14.666 6.65549C14.8105 6.64521 14.951 6.60368 15.0778 6.53377C15.2092 6.46135 15.3198 6.34709 15.5411 6.11855L18.2512 3.31933Z" stroke="" stroke-width="2" stroke-linecap="round" stroke-linejoin="round"/>
</svg>
