<svg width="50" height="50" viewBox="0 0 50 50" fill="none" xmlns="http://www.w3.org/2000/svg">
<g clip-path="url(#clip0_5125_345)">
<path d="M0.758119 31.1125C4.19303 44.4726 17.3978 52.4604 30.8257 49.3164C42.9725 46.4712 51.8748 34.537 49.6688 20.8952C49.0178 16.8654 47.4289 13.2126 44.9632 9.9486C44.8837 9.84424 44.8224 9.72552 44.7232 9.56767C45.2581 9.56767 45.7134 9.5755 46.1687 9.56506C46.7753 9.55071 47.1667 9.16847 47.1745 8.6036C47.181 8.0335 46.7975 7.62648 46.1987 7.61996C44.9619 7.60691 43.7252 7.60691 42.4885 7.62126C41.9288 7.62778 41.5283 8.01002 41.5192 8.57229C41.4996 9.82467 41.4983 11.0784 41.5205 12.3307C41.5309 12.8813 41.9836 13.2792 42.5068 13.2752C43.0442 13.2713 43.433 12.8891 43.4656 12.3138C43.4826 12.0163 43.4682 11.7163 43.4682 11.2793C43.6469 11.501 43.7304 11.5937 43.8009 11.6967C47.7876 17.5033 49.0139 23.8552 47.3102 30.6807C44.9606 40.0971 36.871 46.9956 27.2147 47.9349C23.1875 48.3262 19.3103 47.6896 15.6158 46.025C5.56152 41.4916 0.138452 30.6885 2.5258 19.965C4.88706 9.35894 14.4613 1.79638 25.3296 1.96206C26.141 1.97511 26.9511 2.07817 27.7613 2.13296C28.3535 2.1734 28.8245 1.82117 28.8962 1.29674C28.9745 0.726642 28.6262 0.287004 27.9987 0.182639C27.5852 0.113497 27.1703 0.0600099 26.7555 0C25.584 0 24.4125 0 23.2397 0C22.3421 0.130456 21.4407 0.232212 20.5483 0.395283C14.683 1.46502 9.82223 4.29723 5.94506 8.80841C2.79585 12.4742 0.922494 16.7323 0.221944 21.5083C0.137147 22.085 0.0719187 22.6629 -0.00244141 23.2408C-0.00244141 24.4123 -0.00244141 25.5838 -0.00244141 26.7566C0.0288681 26.8975 0.068005 27.0384 0.0914872 27.1806C0.311958 28.4917 0.428065 29.8301 0.758119 31.1125Z" fill=""/>
<path d="M17.9313 7.75303C16.9568 8.1444 16.0371 8.68188 15.1174 9.19457C14.6047 9.48027 14.4794 10.0791 14.7534 10.5448C15.0208 11.0001 15.5635 11.1501 16.0684 10.8996C16.2132 10.8279 16.3489 10.7353 16.4885 10.6531C19.9703 8.61274 23.7105 7.86392 27.6947 8.51228C28.8244 8.69623 29.9124 8.99236 30.9495 9.38895C31.1805 9.47766 31.4074 9.57029 31.6318 9.66813C31.744 9.7177 31.8562 9.76727 31.9671 9.81815C32.3402 9.99036 32.7055 10.1769 33.0629 10.3752C33.1986 10.4509 33.3317 10.5265 33.4647 10.6061C33.5678 10.6674 33.6709 10.73 33.7726 10.7927C33.9148 10.8814 34.0557 10.9714 34.1953 11.064C34.2957 11.1305 34.3962 11.1997 34.4954 11.2688C34.7706 11.4606 35.0407 11.6628 35.3042 11.8702C35.4333 11.972 35.5612 12.0764 35.6864 12.182C39.364 15.2725 41.6678 19.9076 41.6783 24.9863C41.6326 27.9685 40.9699 30.729 39.5766 33.179C39.3235 33.6238 39.0457 34.0595 38.7443 34.4835C38.2916 35.1202 37.7815 35.732 37.2154 36.3177C32.3024 41.3951 26.351 42.8693 19.6312 40.7624C13.3979 38.8082 8.8659 32.8828 8.40278 26.4057C8.14317 22.7672 8.88677 19.3663 10.8045 16.2392C11.1958 15.6026 11.0889 15.0273 10.5527 14.7142C10.0361 14.4115 9.50252 14.5902 9.12681 15.2138C6.64944 19.3232 5.78713 23.7548 6.68336 28.4656C8.6663 38.8838 18.7701 45.4901 29.1388 43.1615C40.0645 40.7076 46.3864 29.2105 42.5015 18.6174C38.8252 8.59839 27.8447 3.77411 17.9313 7.75303Z" fill=""/>
<path d="M35.685 12.1819C35.5584 12.0762 35.4319 11.9719 35.3027 11.8701C35.4306 11.9719 35.5584 12.0762 35.685 12.1819Z" fill=""/>
<path d="M34.1942 11.0643C34.0546 10.9717 33.9137 10.8817 33.7715 10.793C33.9137 10.883 34.0546 10.9717 34.1942 11.0643Z" fill=""/>
<path d="M31.6305 9.66785C31.4061 9.57001 31.1778 9.47738 30.9482 9.38867C31.1778 9.47608 31.4061 9.57001 31.6305 9.66785Z" fill=""/>
<path d="M23.1351 21.7488C22.1893 20.786 21.2357 19.8298 20.2703 18.8853C20.0916 18.7105 19.862 18.5383 19.6285 18.4783C19.1784 18.3635 18.7818 18.5252 18.5614 18.9557C18.3357 19.3954 18.4192 19.8089 18.7675 20.1599C19.7315 21.1278 20.6904 22.101 21.6714 23.0534C21.9245 23.2999 21.9897 23.4865 21.8541 23.8439C21.0257 26.0278 22.6772 28.3812 25.0059 28.3721C27.3424 28.3629 28.9731 26.0186 28.1395 23.8309C28.0129 23.4969 28.0664 23.3169 28.3051 23.0808C30.3272 21.077 32.3375 19.0614 34.3492 17.0472C34.4979 16.8984 34.6544 16.7484 34.7653 16.5723C35.1241 16.01 34.8658 15.3356 34.2305 15.1229C33.7308 14.956 33.3916 15.2116 33.0694 15.5352C31.0225 17.5833 28.9718 19.6263 26.9314 21.681C26.7018 21.9119 26.527 22.011 26.1852 21.8662C25.3894 21.531 24.5623 21.5427 23.7679 21.8819C23.49 21.9993 23.3308 21.9471 23.1351 21.7488ZM25.0098 23.6156C25.7965 23.6209 26.3887 24.221 26.3835 25.0102C26.3783 25.793 25.773 26.3891 24.9863 26.3839C24.2036 26.38 23.61 25.776 23.6139 24.9867C23.6191 24.2014 24.2192 23.6117 25.0098 23.6156Z" fill=""/>
<path d="M25.9857 11.3932C25.987 11.2797 25.987 11.1662 25.9792 11.0527C25.9426 10.5113 25.5617 10.1499 25.0373 10.1408C24.5154 10.1317 24.0836 10.4826 24.0445 11.007C24.0093 11.4741 24.0093 11.9489 24.0445 12.416C24.0836 12.9391 24.5193 13.29 25.0399 13.2809C25.563 13.2718 25.9413 12.9091 25.9792 12.3664C25.987 12.262 25.987 12.1563 25.9857 12.0507C25.9844 11.945 25.9818 11.8393 25.9818 11.735C25.9805 11.6215 25.9844 11.5067 25.9857 11.3932Z" fill=""/>
<path d="M25.9805 11.735C25.9805 11.8407 25.9831 11.9464 25.9844 12.0507C25.9844 11.9451 25.9805 11.8394 25.9805 11.735C25.9805 11.6215 25.9831 11.508 25.9844 11.3945C25.9844 11.5067 25.9805 11.6215 25.9805 11.735Z" fill=""/>
<path d="M10.1416 24.9789C10.1403 25.5164 10.5199 25.9234 11.0744 25.9639C11.2844 25.9782 11.4957 25.9665 11.7058 25.9652C11.9328 25.9652 12.1611 25.9821 12.3868 25.9612C12.9321 25.9104 13.2986 25.4825 13.2804 24.9398C13.2634 24.4206 12.8916 24.0409 12.3476 24.0187C11.9276 24.0018 11.5049 24.0018 11.0835 24.0174C10.5173 24.0409 10.1429 24.4349 10.1416 24.9789Z" fill=""/>
<path d="M11.7061 25.9649C11.4948 25.9662 11.2834 25.9792 11.0747 25.9635C11.2834 25.9779 11.4961 25.9662 11.7061 25.9649Z" fill=""/>
<path d="M37.6237 25.9775C37.8338 25.9919 38.0451 25.9801 38.2551 25.9801C38.4821 25.9801 38.7091 25.9919 38.9361 25.9788C39.4762 25.9462 39.8441 25.5666 39.8571 25.0435C39.8702 24.5203 39.5219 24.0846 38.9987 24.0442C38.5317 24.0076 38.0568 24.0102 37.5898 24.0429C37.068 24.0794 36.7118 24.5125 36.7183 25.033C36.7236 25.5561 37.0862 25.941 37.6237 25.9775Z" fill=""/>
<path d="M25.9611 37.6082C25.9076 37.0642 25.4784 36.699 24.937 36.7185C24.4191 36.7368 24.0434 37.106 24.0186 37.6539C24.0003 38.074 24.0003 38.4966 24.0186 38.918C24.0434 39.4868 24.436 39.8573 24.9827 39.8573C25.5214 39.8573 25.9245 39.4803 25.965 38.9219C25.9806 38.7119 25.9676 38.5006 25.9676 38.2905C25.9663 38.2905 25.9663 38.2905 25.965 38.2905C25.965 38.0609 25.9833 37.8326 25.9611 37.6082Z" fill=""/>
<path d="M31.7494 2.92075C32.2986 2.92727 32.7278 2.49415 32.7265 1.93711C32.7252 1.37353 32.309 0.966511 31.7415 0.971729C31.2119 0.978252 30.7853 1.39441 30.7722 1.91884C30.7592 2.44458 31.2184 2.91553 31.7494 2.92075Z" fill=""/>
<path d="M12.4994 13.4758C13.063 13.481 13.4791 13.0675 13.4778 12.5052C13.4765 11.9495 13.0447 11.5216 12.4942 11.5294C11.9567 11.5372 11.5158 11.9964 11.5301 12.5339C11.5432 13.0649 11.9619 13.4719 12.4994 13.4758Z" fill=""/>
</g>
<defs>
<clipPath id="clip0_5125_345">
<rect width="50.0052" height="50" fill=""/>
</clipPath>
</defs>
</svg>
