<svg width="50" height="50" viewBox="0 0 50 50" fill="none" xmlns="http://www.w3.org/2000/svg">
<g clip-path="url(#clip0_5125_260)">
<path d="M48.5732 23.3377C47.2676 22.3904 45.6244 22.3374 44.2227 23.2278C43.3913 23.7559 42.5726 24.3036 41.7 24.8749C41.6313 22.0763 40.8774 19.5477 39.5552 17.183C38.2231 14.8007 36.4405 12.8345 34.0857 11.3965C34.7404 10.5248 34.9416 9.60112 34.6383 8.59595C34.336 7.59177 33.6115 6.98121 32.679 6.62194C32.6888 6.55421 32.6869 6.53556 32.6947 6.5228C33.4604 5.14267 34.228 3.76449 34.9917 2.38338C35.4992 1.46459 35.2341 0.90606 34.226 0.5998C32.1656 -0.0254827 30.0542 0.0069102 27.9359 0.00102057C26.4537 -0.00290585 25.0235 0.256238 23.608 0.641027C22.7089 0.885446 22.4654 1.49502 22.9179 2.31466C23.6404 3.62511 24.3717 4.93064 25.0981 6.23912C25.1648 6.35887 25.2178 6.48746 25.2846 6.62882C24.2726 7.00281 23.5795 7.64183 23.287 8.65976C22.9984 9.6659 23.2448 10.5749 23.8456 11.3935C23.7857 11.4426 23.7631 11.4652 23.7356 11.4829C23.6542 11.5359 23.5688 11.5849 23.4892 11.6399C18.9886 14.7614 16.6425 19.0942 16.2705 24.5254C16.2155 25.3333 16.2607 25.349 15.4833 25.6081C13.6035 26.2344 12.0535 27.3731 10.6135 28.6933C9.94604 29.3049 9.25205 29.8879 8.56787 30.4857C8.47658 30.4111 8.42357 30.3738 8.37744 30.3306C7.63338 29.6337 7.23681 29.6386 6.51533 30.3601C4.50991 32.3645 2.5045 34.369 0.50104 36.3754C-0.149764 37.0272 -0.158599 37.4983 0.475518 38.1324C4.27629 41.9362 8.07903 45.7389 11.8827 49.5387C12.5012 50.1571 12.9812 50.1542 13.6064 49.5328C14.5665 48.5797 15.5196 47.6206 16.4757 46.6645C17.5819 45.5583 18.6921 44.4559 19.7915 43.3438C20.2863 42.8432 20.3098 42.3857 19.9044 41.8665C19.8406 41.785 19.7807 41.7006 19.6816 41.5671C19.9299 41.5671 20.1076 41.5671 20.2843 41.5671C24.6839 41.5671 29.0834 41.5533 33.483 41.5749C34.9505 41.5818 36.1735 41.0792 37.2317 40.0849C40.9117 36.6247 44.5947 33.1685 48.2895 29.724C49.0129 29.0497 49.6726 28.3478 49.9955 27.3907C49.9955 26.7066 49.9955 26.0214 49.9955 25.3372C49.6706 24.5637 49.275 23.8462 48.5732 23.3377ZM25.1658 2.29307C27.7101 1.7365 30.2083 1.74533 32.7841 2.28718C32.0822 3.54952 31.4108 4.7726 30.7168 5.98292C30.6599 6.08206 30.4586 6.1439 30.3222 6.14685C29.4142 6.16157 28.5062 6.16157 27.5992 6.15077C27.4755 6.14881 27.289 6.09679 27.238 6.00746C26.5391 4.78242 25.8598 3.5456 25.1658 2.29307ZM25.85 8.53607C27.9271 7.86956 30.01 7.86858 32.0871 8.53509C32.6515 8.71571 32.9254 9.25068 32.7634 9.76799C32.6034 10.2774 32.1352 10.4747 31.5472 10.353C30.6913 10.1754 29.8265 10.0438 28.9499 9.89069C28.0871 10.0438 27.238 10.1734 26.3987 10.3491C25.8068 10.4728 25.3415 10.2794 25.1796 9.77093C25.0147 9.25461 25.2875 8.71669 25.85 8.53607ZM18.6087 21.9546C19.3528 18.8783 20.9007 16.2672 23.3194 14.2039C26.7482 11.2787 30.8739 11.1619 34.3674 14.0046C37.7431 16.7511 39.4658 20.3772 39.7348 24.7178C39.7976 25.7348 39.5414 26.4396 38.5736 26.9657C37.323 27.646 36.1696 28.5068 34.9289 29.3206C33.6292 27.6303 31.772 27.8698 29.9462 27.8864C29.9462 27.5929 29.9629 27.3515 29.9423 27.1139C29.9197 26.8528 30.011 26.7223 30.2554 26.5986C31.4432 25.9998 32.0675 24.8013 31.8859 23.5379C31.7121 22.3306 30.7806 21.349 29.5418 21.0839C29.3367 21.0398 29.1197 21.0564 28.9116 21.026C28.4925 20.9642 28.1911 20.7512 28.0517 20.333C27.9232 19.9453 28.0419 19.6223 28.3197 19.3583C28.6338 19.0589 29.0137 18.9951 29.4024 19.1855C29.6331 19.2984 29.8402 19.4623 30.0483 19.6174C30.5244 19.9718 31.0937 19.9384 31.4501 19.5271C31.8172 19.103 31.7946 18.5288 31.3313 18.1381C30.9249 17.7956 30.4635 17.5207 29.9482 17.1614C29.9482 16.8689 29.957 16.5106 29.9462 16.1533C29.9286 15.5634 29.5202 15.1639 28.9578 15.1707C28.4179 15.1776 28.0252 15.5703 27.9978 16.1337C27.9958 16.1661 27.9938 16.1995 27.9978 16.2319C28.0802 16.8787 27.9349 17.3214 27.2782 17.6984C26.2102 18.3119 25.8058 19.6743 26.1474 20.8709C26.492 22.0773 27.5649 22.9215 28.841 22.9892C29.5084 23.0246 29.9561 23.427 29.9472 23.9826C29.9394 24.4734 29.4918 25.0035 29.0157 24.9171C28.5985 24.8415 28.2166 24.547 27.8299 24.3311C27.5943 24.1995 27.398 23.964 27.1506 23.8952C26.7442 23.7814 26.3791 23.9355 26.1376 24.3046C25.8844 24.6913 25.8736 25.1203 26.1926 25.4305C26.7207 25.9439 27.3165 26.3875 27.9801 26.9402C27.9801 27.1188 27.9801 27.4732 27.9801 27.9561C27.6385 27.8442 27.293 27.8197 27.0652 27.643C24.5121 25.6572 21.633 24.76 18.4075 24.9672C18.3623 24.9701 18.3162 24.9505 18.1405 24.9171C18.2916 23.9257 18.3751 22.9215 18.6087 21.9546ZM12.7466 47.4803C9.35708 44.0888 5.94011 40.6699 2.56535 37.2932C4.18009 35.6843 5.84686 34.0234 7.46651 32.4087C10.8069 35.7491 14.2337 39.1759 17.6467 42.5899C16.034 44.1988 14.376 45.8537 12.7466 47.4803ZM47.4267 27.8207C45.4036 29.7122 43.3854 31.6077 41.3643 33.5022C39.5336 35.2181 37.694 36.9231 35.8751 38.6517C35.187 39.3055 34.3978 39.6196 33.4545 39.6186C28.3227 39.6127 23.1908 39.6176 18.059 39.6068C17.8558 39.6068 17.5957 39.5342 17.4583 39.3987C14.9935 36.9565 12.5434 34.4985 10.0913 32.0435C10.0579 32.0102 10.0324 31.968 9.95586 31.8669C11.1878 30.8205 12.3313 29.7181 13.6035 28.7925C17.1559 26.2069 21.899 26.2766 25.4426 28.926C26.2927 29.5611 27.1683 29.8968 28.2382 29.8467C29.4574 29.7898 30.6815 29.8182 31.9036 29.8398C32.895 29.8575 33.6214 30.4956 33.8226 31.4683C33.9865 32.2654 33.5428 33.1802 32.7585 33.5238C32.4268 33.6691 32.0371 33.7358 31.6729 33.7398C29.4898 33.7594 27.3067 33.7466 25.1236 33.7515C24.5729 33.7525 24.1793 34.0627 24.0929 34.5358C24.0075 35.008 24.2559 35.4684 24.7064 35.6343C24.8399 35.6833 24.9921 35.6981 25.1354 35.699C27.4323 35.703 29.7293 35.7138 32.0263 35.6971C34.0798 35.6824 35.826 33.9292 35.7927 31.8649C35.7829 31.2799 35.9723 30.9785 36.4464 30.6722C39.3873 28.7758 42.3017 26.8401 45.2328 24.9299C46.4441 24.1406 47.8752 24.7434 48.1059 26.1333C48.2227 26.8175 47.9194 27.3593 47.4267 27.8207Z" fill=""/>
<path d="M21.2274 33.7496C20.6689 33.7113 20.2056 34.1099 20.1742 34.6556C20.1418 35.2132 20.5462 35.6716 21.092 35.6981C21.6486 35.7246 22.1021 35.3153 22.1227 34.7666C22.1433 34.2296 21.7526 33.7859 21.2274 33.7496Z" fill=""/>
</g>
<defs>
<clipPath id="clip0_5125_260">
<rect width="49.9892" height="50" fill="" transform="translate(0.00537109)"/>
</clipPath>
</defs>
</svg>
