<svg width="19" height="21" viewBox="0 0 19 21" fill="none" xmlns="http://www.w3.org/2000/svg">
<path d="M7.50641 16.8569V4.85693C7.50641 3.92505 7.50641 3.45911 7.35417 3.09157C7.15118 2.60151 6.76183 2.21216 6.27178 2.00917C5.90423 1.85693 5.43829 1.85693 4.50641 1.85693C3.57453 1.85693 3.10858 1.85693 2.74104 2.00917C2.25099 2.21216 1.86164 2.60151 1.65865 3.09157C1.50641 3.45911 1.50641 3.92505 1.50641 4.85693V16.8569C1.50641 17.7888 1.50641 18.2548 1.65865 18.6223C1.86164 19.1124 2.25099 19.5017 2.74104 19.7047C3.10858 19.8569 3.57453 19.8569 4.50641 19.8569C5.43829 19.8569 5.90423 19.8569 6.27178 19.7047C6.76183 19.5017 7.15118 19.1124 7.35417 18.6223C7.50641 18.2548 7.50641 17.7888 7.50641 16.8569Z" stroke="" stroke-width="2" stroke-linecap="round" stroke-linejoin="round"/>
<path d="M17.5064 16.8569V8.85693C17.5064 7.92505 17.5064 7.45911 17.3542 7.09157C17.1512 6.60151 16.7618 6.21216 16.2718 6.00917C15.9042 5.85693 15.4383 5.85693 14.5064 5.85693C13.5745 5.85693 13.1086 5.85693 12.741 6.00917C12.251 6.21216 11.8616 6.60151 11.6586 7.09157C11.5064 7.45911 11.5064 7.92505 11.5064 8.85693V16.8569C11.5064 17.7888 11.5064 18.2548 11.6586 18.6223C11.8616 19.1124 12.251 19.5017 12.741 19.7047C13.1086 19.8569 13.5745 19.8569 14.5064 19.8569C15.4383 19.8569 15.9042 19.8569 16.2718 19.7047C16.7618 19.5017 17.1512 19.1124 17.3542 18.6223C17.5064 18.2548 17.5064 17.7888 17.5064 16.8569Z" stroke="" stroke-width="2" stroke-linecap="round" stroke-linejoin="round"/>
</svg>
