<svg width="19" height="21" viewBox="0 0 19 21" fill="none" xmlns="http://www.w3.org/2000/svg">
<path d="M17.5064 19.9596C17.5064 18.564 17.5064 17.8662 17.3342 17.2984C16.9464 16.02 15.946 15.0196 14.6676 14.6318C14.0998 14.4596 13.402 14.4596 12.0064 14.4596H7.00641C5.61085 14.4596 4.91306 14.4596 4.34527 14.6318C3.06686 15.0196 2.06645 16.02 1.67865 17.2984C1.50641 17.8662 1.50641 18.564 1.50641 19.9596M14.0064 6.45959C14.0064 8.94488 11.9917 10.9596 9.50641 10.9596C7.02113 10.9596 5.00641 8.94488 5.00641 6.45959C5.00641 3.97431 7.02113 1.95959 9.50641 1.95959C11.9917 1.95959 14.0064 3.97431 14.0064 6.45959Z" stroke="" stroke-width="2" stroke-linecap="round" stroke-linejoin="round"/>
</svg>
