<svg width="25" height="25" viewBox="0 0 25 25" fill="none" xmlns="http://www.w3.org/2000/svg">
<path d="M3.50641 12.5579H12.5064V14.0579H3.50641V12.5579ZM2.00641 8.80786H9.50641V10.3079H2.00641V8.80786Z" fill=""/>
<path d="M22.9457 13.0124L20.6957 7.76236C20.6378 7.62748 20.5417 7.51252 20.4192 7.43174C20.2967 7.35095 20.1532 7.30788 20.0064 7.30786H17.7564V5.80786C17.7564 5.60895 17.6774 5.41818 17.5367 5.27753C17.3961 5.13688 17.2053 5.05786 17.0064 5.05786H5.00642V6.55786H16.2564V15.9749C15.9149 16.1736 15.6159 16.4378 15.3768 16.7523C15.1377 17.0669 14.963 17.4256 14.8629 17.8079H10.1499C9.96737 17.1009 9.53324 16.4847 8.92891 16.0749C8.32458 15.6651 7.59153 15.4898 6.86717 15.5818C6.14281 15.6738 5.47687 16.0268 4.99417 16.5747C4.51148 17.1226 4.24518 17.8277 4.24518 18.5579C4.24518 19.288 4.51148 19.9932 4.99417 20.541C5.47687 21.0889 6.14281 21.4419 6.86717 21.534C7.59153 21.626 8.32458 21.4506 8.92891 21.0408C9.53324 20.631 9.96737 20.0149 10.1499 19.3079H14.8629C15.0261 19.9515 15.3992 20.5224 15.9232 20.9302C16.4473 21.338 17.0924 21.5595 17.7564 21.5595C18.4204 21.5595 19.0655 21.338 19.5896 20.9302C20.1136 20.5224 20.4868 19.9515 20.6499 19.3079H22.2564C22.4553 19.3079 22.6461 19.2288 22.7867 19.0882C22.9274 18.9475 23.0064 18.7568 23.0064 18.5579V13.3079C23.0064 13.2063 22.9857 13.1057 22.9457 13.0124ZM7.25642 20.0579C6.95974 20.0579 6.66973 19.9699 6.42306 19.8051C6.17639 19.6402 5.98413 19.406 5.8706 19.1319C5.75706 18.8578 5.72736 18.5562 5.78524 18.2652C5.84312 17.9743 5.98598 17.707 6.19576 17.4972C6.40553 17.2874 6.67281 17.1446 6.96378 17.0867C7.25475 17.0288 7.55635 17.0585 7.83044 17.172C8.10453 17.2856 8.3388 17.4778 8.50362 17.7245C8.66844 17.9712 8.75642 18.2612 8.75642 18.5579C8.75642 18.9557 8.59838 19.3372 8.31708 19.6185C8.03577 19.8998 7.65424 20.0579 7.25642 20.0579ZM17.7564 8.80786H19.5114L21.1194 12.5579H17.7564V8.80786ZM17.7564 20.0579C17.4597 20.0579 17.1697 19.9699 16.9231 19.8051C16.6764 19.6402 16.4841 19.406 16.3706 19.1319C16.2571 18.8578 16.2274 18.5562 16.2852 18.2652C16.3431 17.9743 16.486 17.707 16.6958 17.4972C16.9055 17.2874 17.1728 17.1446 17.4638 17.0867C17.7548 17.0288 18.0564 17.0585 18.3304 17.172C18.6045 17.2856 18.8388 17.4778 19.0036 17.7245C19.1684 17.9712 19.2564 18.2612 19.2564 18.5579C19.2564 18.9557 19.0984 19.3372 18.8171 19.6185C18.5358 19.8998 18.1542 20.0579 17.7564 20.0579ZM21.5064 17.8079H20.6499C20.4847 17.1654 20.111 16.596 19.5873 16.1888C19.0637 15.7816 18.4197 15.5597 17.7564 15.5579V14.0579H21.5064V17.8079Z" fill=""/>
</svg>
