<svg width="22" height="23" viewBox="0 0 22 23" fill="none" xmlns="http://www.w3.org/2000/svg">
<path d="M10 3.5H5.8C4.11984 3.5 3.27976 3.5 2.63803 3.82698C2.07354 4.1146 1.6146 4.57354 1.32698 5.13803C1 5.77976 1 6.61984 1 8.3V16.7C1 18.3802 1 19.2202 1.32698 19.862C1.6146 20.4265 2.07354 20.8854 2.63803 21.173C3.27976 21.5 4.11984 21.5 5.8 21.5H14.2C15.8802 21.5 16.7202 21.5 17.362 21.173C17.9265 20.8854 18.3854 20.4265 18.673 19.862C19 19.2202 19 18.3802 19 16.7V12.5M6.99997 15.5H8.67452C9.1637 15.5 9.40829 15.5 9.63846 15.4447C9.84254 15.3957 10.0376 15.3149 10.2166 15.2053C10.4184 15.0816 10.5914 14.9086 10.9373 14.5627L20.5 5C21.3284 4.17157 21.3284 2.82843 20.5 2C19.6716 1.17157 18.3284 1.17157 17.5 2L7.93723 11.5627C7.59133 11.9086 7.41838 12.0816 7.29469 12.2834C7.18504 12.4624 7.10423 12.6575 7.05523 12.8615C6.99997 13.0917 6.99997 13.3363 6.99997 13.8255V15.5Z" stroke="#FF131D" stroke-width="1.6" stroke-linecap="round" stroke-linejoin="round"/>
</svg>
