<svg width="52" height="36" viewBox="0 0 52 36" fill="none" xmlns="http://www.w3.org/2000/svg">
<path d="M4.56082 35.995C18.5875 36.0013 32.613 36.0025 46.6398 35.9937C49.2025 35.9925 51.1768 34.0294 51.1805 31.4717C51.1931 22.4916 51.1956 13.5114 51.1655 4.53C51.163 3.87022 50.9978 3.15787 50.7123 2.56445C49.8648 0.804223 48.3837 0.00172898 46.4407 0.00172898C32.8809 0.0054848 19.3212 0.00298215 5.76143 0.00298215C5.31198 0.00298215 4.86128 -0.00578158 4.41184 0.00673781C3.38024 0.0355324 2.46507 0.377313 1.65757 1.02457C0.726125 1.76947 0.266663 2.77728 0 3.90152C0 13.3011 0 22.7007 0 32.1002C0.0350543 32.2267 0.0738644 32.3518 0.105163 32.4795C0.629726 34.5953 2.37743 35.9937 4.56082 35.995ZM5.39962 32.9766C9.57233 28.7187 13.7814 24.4246 18.0555 20.0641C18.7741 20.7952 19.3825 21.5063 20.0861 22.1035C20.8273 22.7332 21.5922 23.4055 22.4648 23.7986C25.3555 25.0981 28.0948 24.7025 30.5123 22.6506C31.4062 21.8906 32.136 20.9367 32.9849 20.024C37.3378 24.4696 41.5581 28.7788 45.6695 32.9778C32.3676 32.9766 18.8217 32.9766 5.39962 32.9766ZM48.1596 5.13719C48.1596 13.7505 48.1596 22.2487 48.1596 30.862C43.8767 26.4928 39.6614 22.1924 35.5338 17.9808C39.6402 13.8019 43.8642 9.50646 48.1596 5.13719ZM45.9712 3.01014C45.8648 3.1441 45.7985 3.24551 45.7146 3.32939C40.1071 8.91053 34.5035 14.4954 28.886 20.0666C26.9543 21.9833 24.2638 22.0058 22.3371 20.0979C16.6921 14.508 11.0671 8.89676 5.43592 3.29308C5.36832 3.22673 5.30948 3.15286 5.18178 3.01014C18.8254 3.01014 32.3639 3.01014 45.9712 3.01014ZM3.03595 5.08836C7.3589 9.48517 11.5842 13.7831 15.7244 17.9946C11.5779 22.2212 7.3589 26.5228 3.03595 30.9296C3.03595 22.2612 3.03595 13.7643 3.03595 5.08836Z" fill=""/>
</svg>
