<svg width="25" height="25" viewBox="0 0 25 25" fill="none" xmlns="http://www.w3.org/2000/svg">
<path d="M22.5064 21.3102V19.3102C22.5064 17.4463 21.2316 15.8802 19.5064 15.4362M16.0064 3.60094C17.4723 4.19433 18.5064 5.63149 18.5064 7.31018C18.5064 8.98887 17.4723 10.426 16.0064 11.0194M17.5064 21.3102C17.5064 19.4464 17.5064 18.5145 17.2019 17.7794C16.796 16.7993 16.0173 16.0206 15.0371 15.6147C14.3021 15.3102 13.3702 15.3102 11.5064 15.3102H8.50641C6.64264 15.3102 5.71076 15.3102 4.97567 15.6147C3.99556 16.0206 3.21687 16.7993 2.81089 17.7794C2.50641 18.5145 2.50641 19.4464 2.50641 21.3102M14.0064 7.31018C14.0064 9.51932 12.2155 11.3102 10.0064 11.3102C7.79727 11.3102 6.00641 9.51932 6.00641 7.31018C6.00641 5.10104 7.79727 3.31018 10.0064 3.31018C12.2155 3.31018 14.0064 5.10104 14.0064 7.31018Z" stroke="" stroke-width="2" stroke-linecap="round" stroke-linejoin="round"/>
</svg>
