<svg width="35" height="48" viewBox="0 0 35 48" fill="none" xmlns="http://www.w3.org/2000/svg">
<path d="M19.2834 46.9846C19.614 46.5927 19.872 46.1406 20.165 45.7173C22.7122 42.053 25.3045 38.4176 27.7966 34.7157C30.0019 31.4372 31.9242 27.9921 33.2855 24.2627C34.638 20.5583 35.2103 16.7864 34.2548 12.8804C32.5228 5.80232 26.3364 0.411115 18.7649 0.0241504C14.1614 -0.211284 10.0776 1.20759 6.64004 4.28828C3.02085 7.53302 1.13612 11.6268 0.987093 16.4971C0.898179 19.3837 1.59823 22.1237 2.62011 24.7912C4.07405 28.5844 6.09779 32.0784 8.37074 35.4245C11.0094 39.3105 13.7244 43.1438 16.4281 46.9846C16.7036 47.3754 17.1257 47.6634 17.4801 47.999C17.7305 47.999 17.9797 47.999 18.2302 47.999C18.5833 47.6634 18.9703 47.3553 19.2834 46.9846ZM18.006 43.8626C17.9722 43.9115 17.9246 43.9515 17.8382 44.0455C16.8577 42.6667 15.9072 41.3342 14.9604 39.9992C12.3581 36.3337 9.75204 32.6707 7.58679 28.7209C6.12909 26.061 4.89306 23.3122 4.20179 20.3404C2.6126 13.5141 5.8899 6.8455 12.2491 3.99899C20.1838 0.447432 29.6576 5.22876 31.5511 13.7144C32.2824 16.9905 31.7715 20.1275 30.6556 23.2157C29.3157 26.9226 27.3658 30.3151 25.1743 33.5649C22.8362 37.0325 20.4005 40.4338 18.006 43.8626Z" fill=""/>
<path d="M17.8646 8.44043C13.2009 8.43918 9.42396 12.1949 9.41895 16.8409C9.41394 21.5346 13.1684 25.3078 17.8433 25.3103C22.5081 25.3116 26.2838 21.5559 26.2889 16.9086C26.2939 12.2149 22.5407 8.44293 17.8646 8.44043ZM17.7969 22.5014C14.735 22.4676 12.2104 19.9016 12.2291 16.8422C12.2479 13.7828 14.8052 11.2444 17.8646 11.2506C20.944 11.2569 23.4987 13.8316 23.4799 16.9086C23.4599 19.988 20.8714 22.5352 17.7969 22.5014Z" fill=""/>
</svg>
