<svg width="23" height="19" viewBox="0 0 23 19" fill="none" xmlns="http://www.w3.org/2000/svg">
<path d="M21.0064 15.2585L14.3636 9.25854M8.64927 9.25854L2.00644 15.2585M1.50641 4.25854L9.67133 9.97399C10.3325 10.4368 10.6631 10.6682 11.0227 10.7579C11.3403 10.837 11.6725 10.837 11.9901 10.7579C12.3497 10.6682 12.6803 10.4368 13.3415 9.97399L21.5064 4.25854M6.30641 17.2585H16.7064C18.3866 17.2585 19.2266 17.2585 19.8684 16.9316C20.4329 16.6439 20.8918 16.185 21.1794 15.6205C21.5064 14.9788 21.5064 14.1387 21.5064 12.4585V6.05855C21.5064 4.37839 21.5064 3.53831 21.1794 2.89657C20.8918 2.33209 20.4329 1.87315 19.8684 1.58553C19.2266 1.25854 18.3866 1.25854 16.7064 1.25854H6.30641C4.62625 1.25854 3.78617 1.25854 3.14444 1.58553C2.57995 1.87315 2.12101 2.33209 1.83339 2.89657C1.50641 3.53831 1.50641 4.37839 1.50641 6.05855V12.4585C1.50641 14.1387 1.50641 14.9788 1.83339 15.6205C2.12101 16.185 2.57995 16.6439 3.14444 16.9316C3.78617 17.2585 4.62625 17.2585 6.30641 17.2585Z" stroke="" stroke-width="2" stroke-linecap="round" stroke-linejoin="round"/>
</svg>
