<svg width="21" height="23" viewBox="0 0 21 23" fill="none" xmlns="http://www.w3.org/2000/svg">
<path d="M13.5067 18.6093C13.5067 20.2661 12.1635 21.6093 10.5067 21.6093C8.8498 21.6093 7.50666 20.2661 7.50666 18.6093M12.3032 5.84781C12.7387 5.39789 13.0067 4.78487 13.0067 4.10925C13.0067 2.72854 11.8874 1.60925 10.5067 1.60925C9.12595 1.60925 8.00666 2.72854 8.00666 4.10925C8.00666 4.78487 8.27466 5.39789 8.71015 5.84781M1.05348 7.93221C1.03913 6.48086 1.82161 5.12557 3.08569 4.41232M19.9598 7.93221C19.9742 6.48086 19.1917 5.12557 17.9276 4.41232M16.5067 10.8093C16.5067 9.43013 15.8745 8.10749 14.7493 7.1323C13.6241 6.15711 12.098 5.60925 10.5067 5.60925C8.91536 5.60925 7.38924 6.15711 6.26402 7.1323C5.1388 8.10749 4.50666 9.43013 4.50666 10.8093C4.50666 13.0911 3.94079 14.7598 3.23472 15.9539C2.43 17.3149 2.02763 17.9953 2.04352 18.1579C2.0617 18.3439 2.09517 18.4025 2.246 18.5128C2.37783 18.6093 3.04017 18.6093 4.36485 18.6093H16.6485C17.9731 18.6093 18.6355 18.6093 18.7673 18.5128C18.9181 18.4025 18.9516 18.3439 18.9698 18.1579C18.9857 17.9953 18.5833 17.3149 17.7786 15.9539C17.0725 14.7598 16.5067 13.0911 16.5067 10.8093Z" stroke="" stroke-width="2" stroke-linecap="round" stroke-linejoin="round"/>
</svg>
