<svg width="21" height="17" viewBox="0 0 21 17" fill="none" xmlns="http://www.w3.org/2000/svg">
<path d="M1.50641 4.2074L13.5064 4.2074M13.5064 4.2074C13.5064 5.86425 14.8496 7.2074 16.5064 7.2074C18.1633 7.2074 19.5064 5.86425 19.5064 4.2074C19.5064 2.55054 18.1633 1.2074 16.5064 1.2074C14.8496 1.2074 13.5064 2.55054 13.5064 4.2074ZM7.50641 12.2074L19.5064 12.2074M7.50641 12.2074C7.50641 13.8643 6.16326 15.2074 4.50641 15.2074C2.84955 15.2074 1.50641 13.8643 1.50641 12.2074C1.50641 10.5505 2.84955 9.2074 4.50641 9.2074C6.16326 9.2074 7.50641 10.5505 7.50641 12.2074Z" stroke="" stroke-width="2" stroke-linecap="round" stroke-linejoin="round"/>
</svg>
