<svg width="51" height="51" viewBox="0 0 51 51" fill="none" xmlns="http://www.w3.org/2000/svg">
<path d="M41.8745 48.7395C42.958 47.7591 43.9595 46.6863 44.9848 45.6438C45.5199 45.0994 46.0616 44.5564 46.5492 43.9711C48.0528 42.1662 48.0501 39.5897 46.4778 37.8496C45.2134 36.4504 43.8617 35.1304 42.5325 33.792C41.5574 32.8116 40.5929 31.8167 39.5544 30.9063C38.5859 30.0567 37.4099 29.733 36.1085 29.8889C34.7912 30.0475 33.7857 30.7531 32.8793 31.6502C31.9082 32.6108 30.9463 33.5832 29.9646 34.5345C29.8589 34.6376 29.6039 34.7155 29.4916 34.6601C28.8375 34.335 28.1848 34.0007 27.5717 33.6057C25.2318 32.1034 23.1508 30.2893 21.2561 28.2598C19.4208 26.2924 17.723 24.2233 16.5233 21.7869C16.3819 21.5002 16.4096 21.3535 16.6316 21.1316C17.8287 19.9371 19.0495 18.7612 20.1766 17.5033C21.7225 15.7778 21.7568 13.2066 20.2242 11.481C18.8963 9.98662 17.4601 8.58872 16.0516 7.16835C15.1584 6.26856 14.2692 5.35689 13.3047 4.53638C11.5157 3.01295 8.98806 2.99181 7.23077 4.55091C5.76152 5.85501 4.40325 7.28727 3.01724 8.68253C1.25069 10.461 0.654796 12.6609 0.765783 15.1066C0.8662 17.3395 1.44624 19.4641 2.22843 21.5372C4.42306 27.3613 7.89801 32.3756 12.0957 36.9102C15.6235 40.7207 19.6666 43.8984 24.2104 46.4194C27.0287 47.9824 29.9302 49.3552 33.1013 50.0568C33.9535 50.2458 34.8202 50.3647 35.6804 50.5153C36.3635 50.5153 37.0479 50.5153 37.731 50.5153C37.8209 50.4836 37.9081 50.4334 38.0006 50.4215C39.454 50.2339 40.7884 49.7212 41.8745 48.7395ZM36.1415 47.6482C33.1066 47.4169 30.3372 46.3256 27.6457 44.9977C21.7436 42.0843 16.7083 38.0597 12.4802 33.0283C9.32499 29.2732 6.67187 25.2024 4.94233 20.5832C4.22884 18.6793 3.63295 16.7396 3.63823 14.4221C3.54971 12.9185 4.17731 11.4757 5.44837 10.272C6.51067 9.26521 7.52145 8.20423 8.55997 7.17232C9.77026 5.97128 10.8114 5.96996 12.0124 7.16835C13.8424 8.99699 15.6684 10.8296 17.4957 12.6596C17.5182 12.682 17.542 12.7058 17.5644 12.7283C18.7998 13.9927 18.813 14.911 17.5763 16.1596C16.4889 17.2576 15.3817 18.3371 14.2718 19.4099C13.2809 20.3679 13.125 21.1844 13.6786 22.437C14.9311 25.2724 16.8153 27.6679 18.891 29.9259C21.2244 32.4654 23.8048 34.7142 26.7816 36.4781C27.4238 36.8587 28.0923 37.1956 28.7569 37.5338C29.7386 38.0333 30.6569 37.8787 31.4721 37.0727C32.6071 35.9523 33.7289 34.8199 34.8572 33.6942C35.0065 33.5449 35.1545 33.393 35.317 33.2582C36.2287 32.5051 37.1761 32.5183 38.023 33.3441C39.339 34.6283 40.6299 35.9364 41.9287 37.2379C42.6646 37.9738 43.4138 38.6992 44.1233 39.4602C45.0178 40.4208 45.0614 41.4091 44.1722 42.3684C42.8787 43.7623 41.5561 45.1338 40.178 46.4432C39.0615 47.5041 37.6385 47.7618 36.1415 47.6482Z" fill=""/>
<path d="M49.5947 18.4167C48.1123 14.0736 45.6534 10.3556 42.2683 7.24794C38.3943 3.69107 33.8557 1.49512 28.7001 0.542481C27.6418 0.346933 26.7618 1.24936 27.0115 2.27071C27.1952 3.02383 27.7805 3.30527 28.4821 3.42947C31.3242 3.93683 33.9813 4.94761 36.4507 6.438C39.9124 8.52694 42.6911 11.3082 44.7787 14.7713C46.2862 17.2724 47.2732 19.9705 47.8004 22.8403C47.9577 23.6991 48.4426 24.1523 49.2063 24.225C49.8127 24.2818 50.3333 23.8894 50.6478 23.1402C50.6597 23.1138 50.6914 23.0953 50.7138 23.0728C50.7138 22.9103 50.7138 22.7478 50.7138 22.5839C50.6795 22.4954 50.6359 22.4082 50.6121 22.317C50.2778 21.0169 50.0281 19.6851 49.5947 18.4167Z" fill=""/>
<path d="M27.6459 12.3987C27.8177 12.4463 27.9934 12.4767 28.1678 12.515C32.5108 13.4663 35.6832 15.9476 37.6215 19.9299C38.1751 21.0662 38.4301 22.3492 38.8199 23.5648C39.0736 24.3562 39.7937 24.7949 40.5521 24.6178C41.292 24.4447 41.7571 23.6916 41.6091 22.8843C41.5417 22.5183 41.4611 22.1523 41.3647 21.7929C39.9654 16.5832 36.7931 12.8664 31.8713 10.6903C30.6677 10.1578 29.3569 9.86846 28.0951 9.4668C28.0819 9.5104 28.0674 9.55532 28.0542 9.59892C27.309 9.58571 26.6999 10.0719 26.5968 10.763C26.4792 11.5399 26.8967 12.1926 27.6459 12.3987Z" fill=""/>
</svg>
