<svg width="48" height="47" viewBox="0 0 48 47" fill="none" xmlns="http://www.w3.org/2000/svg">
<path d="M17.7351 42.9139C17.9424 42.6992 18.0761 42.3251 18.0822 42.0222C18.1166 40.4166 18.108 38.8085 18.0908 37.2017C18.0871 36.8656 18.1877 36.6375 18.433 36.4106C21.2995 33.7403 24.1562 31.0602 27.0178 28.3839C27.0804 28.325 27.1552 28.2808 27.2435 28.2158C27.9991 29.5221 28.7412 30.8039 29.482 32.0869C31.9045 36.2806 34.3245 40.4767 36.7483 44.6691C37.2217 45.4872 37.8215 45.5682 38.4863 44.9058C39.6798 43.7185 40.861 42.5189 42.0618 41.3402C42.4396 40.9685 42.5549 40.5773 42.4212 40.0596C41.9931 38.3903 41.6006 36.7099 41.1738 35.0405C41.0903 34.7167 41.1517 34.5094 41.3909 34.2788C42.2924 33.4055 43.1731 32.5113 44.0574 31.622C44.5518 31.1253 44.6082 30.5733 44.2144 30.1697C43.8084 29.7527 43.2479 29.8104 42.7303 30.3243C42.101 30.9499 41.4755 31.5803 40.845 32.2046C40.7665 32.2831 40.6696 32.3432 40.5482 32.4365C40.2575 31.2565 40.0048 30.1268 39.6921 29.0131C39.5571 28.531 39.6185 28.2085 40.0036 27.8576C40.7727 27.1585 41.4865 26.398 42.2188 25.6596C42.5438 25.3309 42.6285 24.9421 42.4101 24.5275C42.2114 24.1473 41.8619 23.9694 41.4522 24.0675C41.2167 24.1239 40.9849 24.2895 40.8033 24.4613C40.2183 25.0169 39.6577 25.5983 39.0555 26.203C39.0003 26.0435 38.9586 25.9466 38.934 25.8448C38.4385 23.8148 38.0276 21.7579 37.4167 19.7622C37.0794 18.6608 37.2647 17.9261 38.1024 17.1827C38.7966 16.567 39.3633 15.809 39.9852 15.1135C40.2551 14.8118 40.3703 14.4254 40.1643 14.0991C40.0048 13.8465 39.6859 13.6195 39.3952 13.5447C38.988 13.4392 38.7096 13.768 38.4373 14.0525C35.4628 17.1766 32.5583 20.3743 29.4808 23.3941C25.3202 27.4774 21.0272 31.4245 16.782 35.4207C16.4067 35.774 16.2399 36.1493 16.2485 36.6682C16.273 38.259 16.2595 39.8511 16.2534 41.442C16.2534 41.5867 16.2509 41.7793 16.1651 41.8688C15.407 42.6612 14.6306 43.434 13.8039 44.2705C13.2237 41.6934 12.673 39.2219 12.1014 36.7565C12.0327 36.4609 12.0941 36.2867 12.3026 36.0831C13.3623 35.0429 14.4221 34.004 15.4438 32.9271C15.6597 32.7002 15.8388 32.3015 15.802 32.0108C15.7701 31.7471 15.4622 31.4552 15.2022 31.2982C14.8428 31.0811 14.492 31.281 14.216 31.5558C13.1526 32.6131 12.0904 33.6716 11.038 34.74C10.8454 34.935 10.6774 34.9939 10.3952 34.9276C8.95524 34.5867 7.50666 34.2776 6.06297 33.9525C4.98481 33.7097 3.9091 33.4582 2.73159 33.1871C3.39517 32.5334 4.02072 31.9704 4.58127 31.3485C4.99094 30.8947 5.42025 30.7033 6.0458 30.7266C7.43674 30.7794 8.83136 30.718 10.2235 30.7548C10.8282 30.7708 11.2563 30.5684 11.6648 30.1317C15.147 26.4115 18.6244 22.6864 22.1483 19.0054C26.4683 14.4941 30.9024 10.0993 35.7977 6.2012C37.6645 4.71458 39.5792 3.28685 41.7969 2.34606C42.3255 2.1216 42.8946 1.96337 43.4601 1.86034C44.5898 1.65427 45.322 2.37918 45.1503 3.5064C45.0865 3.92589 45.0068 4.3601 44.8363 4.74402C44.4389 5.63452 43.9838 6.49803 43.5472 7.37012C43.2957 7.87179 43.4159 8.39432 43.8538 8.6568C44.2905 8.91807 44.813 8.82117 45.0988 8.36243C45.966 6.96903 46.7154 5.52167 46.9841 3.87438C47.2968 1.95846 46.2702 0.347967 44.4524 0.0474557C43.8526 -0.0518971 43.1927 0.011885 42.5929 0.145582C40.6157 0.584697 38.9353 1.66163 37.2953 2.78763C34.3221 4.8262 31.6273 7.20576 28.9865 9.64911C28.7657 9.85394 28.5805 9.89197 28.3008 9.82083C26.8964 9.46512 25.4858 9.13149 24.0777 8.78682C23.0474 8.53415 22.0183 8.27534 20.8972 7.99691C21.508 7.38852 22.0588 6.84392 22.6046 6.29442C23.1333 5.76331 23.186 5.22975 22.7604 4.81394C22.363 4.42511 21.8036 4.48521 21.3093 4.97707C20.5501 5.73264 19.7994 6.49803 19.0304 7.24256C18.9187 7.3505 18.7041 7.44985 18.5679 7.41919C17.28 7.12604 15.9983 6.80345 14.6331 6.46859C15.3531 5.74981 16.0228 5.08378 16.69 4.41652C17.2616 3.84494 17.3401 3.28685 16.9108 2.86858C16.4766 2.44541 15.9713 2.51901 15.3985 3.09059C14.5644 3.92344 13.7119 4.73912 12.9085 5.59895C12.6203 5.90804 12.3627 5.9289 11.9922 5.83568C10.3033 5.40637 8.60935 5.01264 6.92526 4.57843C6.40273 4.44351 6.02004 4.56862 5.64962 4.94641C4.48191 6.13741 3.29459 7.3088 2.11585 8.48999C1.41302 9.19527 1.5001 9.77544 2.37465 10.2808C7.70904 13.3595 13.0422 16.4394 18.3741 19.5194C18.5115 19.5991 18.644 19.6886 18.7838 19.777C18.7335 19.8469 18.7114 19.8873 18.6808 19.9192C15.9615 22.8238 13.2446 25.7308 10.5142 28.623C10.3695 28.7764 10.1021 28.8855 9.88989 28.888C8.26836 28.9101 6.6456 28.8892 5.02284 28.9101C4.75054 28.9137 4.39728 28.9689 4.22065 29.1419C2.79537 30.5463 1.40198 31.9826 0 33.4091C0 33.6238 0 33.8372 0 34.0519C0.241636 34.4309 0.581398 34.6161 1.03033 34.713C3.62208 35.2772 6.20771 35.8709 8.79456 36.4572C8.90986 36.4829 9.02148 36.5259 9.20301 36.5811C8.48301 37.2962 7.79245 37.983 7.10066 38.6699C6.90563 38.8637 6.70693 39.0551 6.51926 39.255C6.12185 39.6794 6.11326 40.235 6.48982 40.6055C6.84921 40.9587 7.40608 40.9649 7.80717 40.5785C8.56519 39.8462 9.30359 39.0919 10.0506 38.3473C10.1683 38.2308 10.291 38.1192 10.4664 37.9512C10.6541 38.7582 10.8331 39.5077 11.0036 40.2584C11.4354 42.1608 11.8782 44.062 12.2842 45.9693C12.3798 46.4194 12.57 46.7568 12.9478 46.9996C13.1624 46.9996 13.3758 46.9996 13.5905 46.9996C13.7168 46.8929 13.8517 46.7948 13.9683 46.6795C15.2304 45.4296 16.5024 44.1895 17.7351 42.9139ZM35.5928 20.0186C35.8136 20.9017 36.0393 21.7922 36.2576 22.6864C37.6523 28.4035 39.042 34.1206 40.4476 39.8352C40.5212 40.1332 40.4673 40.3111 40.2563 40.5159C39.4602 41.2924 38.6814 42.0859 37.8657 42.9041C34.7649 37.5353 31.6899 32.2108 28.67 26.9819C31.0005 24.6379 33.2832 22.343 35.5928 20.0186ZM4.30774 9.2566C4.255 9.22594 4.20716 9.18914 4.1029 9.11922C4.9566 8.26798 5.77105 7.44004 6.61125 6.63908C6.71919 6.53605 6.978 6.51888 7.14359 6.55936C10.3167 7.32474 13.4862 8.10607 16.6581 8.88004C20.0962 9.71902 23.5343 10.5555 27.0558 11.4129C26.9295 11.5564 26.8412 11.6656 26.7431 11.7637C24.637 13.8771 22.5286 15.9868 20.4286 18.1039C20.2361 18.2977 20.1061 18.3885 19.819 18.2217C14.6527 15.2251 9.47899 12.2421 4.30774 9.2566Z" fill=""/>
</svg>
