<svg width="" height="42" viewBox="0 0 40 42" fill="none" xmlns="http://www.w3.org/2000/svg">
<path d="M9.5 22H19.5V32M1.52 22H1.5M11.52 32H11.5M19.52 40H19.5M37.52 22H37.5M1.5 32H4.5M26.5 22H30.5M1.5 40H11.5M19.5 2V14M30.7 40H34.3C35.4201 40 35.9802 40 36.408 39.782C36.7843 39.5903 37.0903 39.2843 37.282 38.908C37.5 38.4802 37.5 37.9201 37.5 36.8V33.2C37.5 32.0799 37.5 31.5198 37.282 31.092C37.0903 30.7157 36.7843 30.4097 36.408 30.218C35.9802 30 35.4201 30 34.3 30H30.7C29.5799 30 29.0198 30 28.592 30.218C28.2157 30.4097 27.9097 30.7157 27.718 31.092C27.5 31.5198 27.5 32.0799 27.5 33.2V36.8C27.5 37.9201 27.5 38.4802 27.718 38.908C27.9097 39.2843 28.2157 39.5903 28.592 39.782C29.0198 40 29.5799 40 30.7 40ZM30.7 14H34.3C35.4201 14 35.9802 14 36.408 13.782C36.7843 13.5903 37.0903 13.2843 37.282 12.908C37.5 12.4802 37.5 11.9201 37.5 10.8V7.2C37.5 6.07989 37.5 5.51984 37.282 5.09202C37.0903 4.71569 36.7843 4.40973 36.408 4.21799C35.9802 4 35.4201 4 34.3 4H30.7C29.5799 4 29.0198 4 28.592 4.21799C28.2157 4.40973 27.9097 4.71569 27.718 5.09202C27.5 5.51984 27.5 6.07989 27.5 7.2V10.8C27.5 11.9201 27.5 12.4802 27.718 12.908C27.9097 13.2843 28.2157 13.5903 28.592 13.782C29.0198 14 29.5799 14 30.7 14ZM4.7 14H8.3C9.42011 14 9.98016 14 10.408 13.782C10.7843 13.5903 11.0903 13.2843 11.282 12.908C11.5 12.4802 11.5 11.9201 11.5 10.8V7.2C11.5 6.07989 11.5 5.51984 11.282 5.09202C11.0903 4.71569 10.7843 4.40973 10.408 4.21799C9.98016 4 9.42011 4 8.3 4H4.7C3.57989 4 3.01984 4 2.59202 4.21799C2.21569 4.40973 1.90973 4.71569 1.71799 5.09202C1.5 5.51984 1.5 6.07989 1.5 7.2V10.8C1.5 11.9201 1.5 12.4802 1.71799 12.908C1.90973 13.2843 2.21569 13.5903 2.59202 13.782C3.01984 14 3.57989 14 4.7 14Z" stroke="" stroke-width="3" stroke-linecap="round" stroke-linejoin="round"/>
</svg>
