<svg width="20" height="23" viewBox="0 0 20 23" fill="none" xmlns="http://www.w3.org/2000/svg">
<path d="M17.5064 11.8495V6.70833C17.5064 5.02817 17.5064 4.18809 17.1794 3.54635C16.8918 2.98187 16.4329 2.52293 15.8684 2.23531C15.2266 1.90833 14.3866 1.90833 12.7064 1.90833H6.30641C4.62625 1.90833 3.78617 1.90833 3.14444 2.23531C2.57995 2.52293 2.12101 2.98187 1.83339 3.54635C1.50641 4.18809 1.50641 5.02817 1.50641 6.70833V17.1083C1.50641 18.7885 1.50641 19.6286 1.83339 20.2703C2.12101 20.8348 2.57995 21.2937 3.14444 21.5813C3.78617 21.9083 4.62625 21.9083 6.30641 21.9083H11.5064M11.5064 10.9083H5.50641M7.50641 14.9083H5.50641M13.5064 6.90833H5.50641M12.5064 16.9083H18.5064" stroke="" stroke-width="2" stroke-linecap="round" stroke-linejoin="round"/>
</svg>
