<svg width="45" height="50" viewBox="0 0 45 50" fill="none" xmlns="http://www.w3.org/2000/svg">
<g clip-path="url(#clip0_5125_732)">
<path d="M41.9429 29.9724C41.6753 29.9144 41.3915 29.9159 41.115 29.9159C38.9495 29.9114 36.784 29.9129 34.5085 29.9129C35.1714 28.7819 35.7421 27.7444 36.3738 26.7457C37.0738 25.6384 37.3265 24.4256 37.319 23.1474C37.3057 20.7054 35.7897 18.5904 33.6182 17.8592C32.1572 17.3672 30.0883 17.8205 29.6112 19.9727C29.3437 21.1795 28.9483 22.3582 28.5916 23.5442C28.5203 23.782 28.3969 24.0302 28.2289 24.2101C26.2358 26.331 24.2368 28.4474 22.2184 30.5431C22.0416 30.7274 21.7175 30.8537 21.4574 30.8612C20.3085 30.8954 19.1582 30.8656 18.0093 30.882C17.2795 30.8924 16.9183 31.2223 16.8202 31.9372C16.2198 36.3381 15.6238 40.739 15.0293 45.1399C14.8881 46.1877 15.3117 46.6737 16.3654 46.6767C17.7744 46.6811 19.1834 46.6648 20.5924 46.6871C20.9729 46.693 21.3891 46.7317 21.7235 46.8907C22.9898 47.4956 24.2338 48.1481 25.4778 48.8006C26.4989 49.3356 27.5304 49.8945 28.7001 49.9227C31.3308 49.9881 33.963 50.0253 36.5922 49.9718C38.1558 49.9406 39.1828 48.9448 39.3924 47.402C39.4875 46.7049 39.4088 45.9856 39.4088 45.2469C41.0942 44.2303 41.2948 42.6385 40.8876 40.8163C41.821 40.3615 42.3977 39.6035 42.5582 38.5988C42.6518 38.0072 42.5567 37.3874 42.5671 36.7795C42.5701 36.6042 42.5894 36.3351 42.6964 36.2712C44.0177 35.488 44.3655 34.2662 44.2882 32.8454C44.2109 31.3977 43.288 30.2637 41.9429 29.9724ZM41.0437 34.3688C40.0419 34.3703 39.0416 34.3643 38.0399 34.3718C37.2923 34.3777 36.7676 34.8399 36.7647 35.4776C36.7617 36.1181 37.2819 36.573 38.0339 36.5789C38.5527 36.5834 39.0714 36.5819 39.5916 36.5789C40.088 36.5759 40.3421 36.8539 40.406 37.3131C40.4387 37.5494 40.4358 37.7947 40.415 38.034C40.3644 38.6017 40.1266 38.8232 39.5589 38.8262C38.5214 38.8336 37.4825 38.8232 36.4451 38.8321C36.2251 38.8336 35.9977 38.8529 35.7897 38.9183C35.2472 39.0877 34.9767 39.5574 35.0569 40.1296C35.1253 40.6231 35.5102 41.0036 36.0334 41.0273C36.6621 41.0556 37.2938 41.0348 37.924 41.0467C38.6002 41.06 38.8588 41.3855 38.8588 42.2C38.8588 43.0026 38.6329 43.2909 37.9463 43.3013C36.8523 43.3162 35.7584 43.288 34.6645 43.3132C33.7386 43.334 33.2006 44.0683 33.5231 44.8307C33.7163 45.287 34.0775 45.5085 34.5724 45.5114C35.2026 45.5159 35.8342 45.4951 36.4629 45.5278C37.0307 45.5575 37.2953 45.9588 37.2863 46.6916C37.2774 47.3931 37.0173 47.7736 36.4481 47.7765C34.0388 47.7884 31.6281 47.7884 29.2188 47.7617C28.1888 47.7498 27.2985 47.2697 26.4112 46.7986C25.1865 46.1491 23.9782 45.4579 22.7074 44.914C22.0341 44.6256 21.2479 44.5364 20.5033 44.4874C19.4747 44.4175 18.4373 44.4696 17.3494 44.4696C17.4846 43.4292 17.6065 42.4586 17.7388 41.4911C18.094 38.8871 18.473 36.2876 18.7955 33.6792C18.8579 33.1798 19.0303 33.0713 19.4852 33.0876C20.3368 33.1188 21.1899 33.0832 22.043 33.101C22.5989 33.1129 23.0299 32.9301 23.4179 32.5169C25.625 30.1656 27.8574 27.8351 30.0615 25.4808C30.3038 25.2222 30.4911 24.8744 30.5966 24.5341C31.0083 23.2113 31.3754 21.8736 31.7618 20.5419C31.9476 19.9013 32.2181 19.7631 32.8765 19.9563C34.1964 20.3442 35.1357 21.7235 35.1119 23.2603C35.0985 24.103 34.9172 24.8937 34.4624 25.6339C33.535 27.1499 32.6521 28.6927 31.7589 30.228C31.145 31.2818 31.6236 32.1215 32.8349 32.1215C35.5786 32.1245 38.3223 32.1215 41.066 32.123C41.8358 32.123 42.0811 32.3906 42.0855 33.2258C42.09 34.0909 41.8403 34.3673 41.0437 34.3688Z" fill=""/>
<path d="M34.706 2.00928C35.0775 1.67041 35.244 1.25871 35.0597 0.759315C34.8665 0.239116 34.4563 0.0265781 33.9316 0.020633C32.9864 0.010229 32.0396 0.0563038 31.0973 0.0042839C30.2932 -0.0403045 29.6363 0.200473 28.9808 0.653789C23.6362 4.34571 19.0391 8.84914 14.7779 13.7137C13.6082 15.0499 12.495 16.4336 11.3253 17.8322C11.2302 17.7713 11.1663 17.7356 11.1053 17.694C8.81198 16.0948 6.52013 14.4926 4.22383 12.8963C3.52676 12.4118 3.10169 12.4534 2.50123 13.0419C1.82497 13.7033 1.15466 14.3692 0.487316 15.038C-0.107197 15.6325 -0.154758 16.0903 0.325311 16.7577C3.86861 21.6683 7.44757 26.5537 10.6148 31.7215C10.8868 32.1644 11.3268 32.3978 11.7964 32.2165C12.1383 32.0842 12.4831 31.7765 12.6719 31.4555C15.5731 26.5418 18.6452 21.7397 21.9507 17.0876C25.7794 11.7043 29.8057 6.48596 34.706 2.00928ZM11.5913 28.9244C8.59052 24.6171 5.61499 20.3485 2.63797 16.0754C2.92333 15.7797 3.22653 15.4646 3.55649 15.1227C5.02642 16.1483 6.48298 17.1649 7.93953 18.1815C8.86549 18.828 9.79144 19.4775 10.7189 20.1211C11.5155 20.674 12.0179 20.5997 12.6183 19.8268C16.4723 14.8641 20.6814 10.2344 25.4851 6.17235C27.0249 4.87037 28.6687 3.69175 30.2798 2.47448C30.4968 2.31099 30.7971 2.25897 31.1062 2.22479C23.4415 10.3087 17.3358 19.4998 11.5913 28.9244Z" fill=""/>
</g>
<defs>
<clipPath id="clip0_5125_732">
<rect width="44.2986" height="50" fill=""/>
</clipPath>
</defs>
</svg>
