<svg width="23" height="23" viewBox="0 0 23 23" fill="none" xmlns="http://www.w3.org/2000/svg">
<path d="M11.5064 14.6605C13.1633 14.6605 14.5064 13.3174 14.5064 11.6605C14.5064 10.0037 13.1633 8.66052 11.5064 8.66052C9.84955 8.66052 8.50641 10.0037 8.50641 11.6605C8.50641 13.3174 9.84955 14.6605 11.5064 14.6605Z" stroke="" stroke-width="2" stroke-linecap="round" stroke-linejoin="round"/>
<path d="M18.2337 14.3878C18.1127 14.662 18.0766 14.9662 18.13 15.2611C18.1835 15.556 18.3241 15.8281 18.5337 16.0423L18.5882 16.0969C18.7573 16.2657 18.8914 16.4663 18.9829 16.687C19.0744 16.9077 19.1215 17.1443 19.1215 17.3833C19.1215 17.6222 19.0744 17.8588 18.9829 18.0795C18.8914 18.3002 18.7573 18.5008 18.5882 18.6696C18.4194 18.8387 18.2188 18.9728 17.9981 19.0643C17.7774 19.1558 17.5408 19.2029 17.3019 19.2029C17.0629 19.2029 16.8263 19.1558 16.6056 19.0643C16.3849 18.9728 16.1844 18.8387 16.0155 18.6696L15.961 18.6151C15.7467 18.4055 15.4746 18.2649 15.1797 18.2114C14.8848 18.158 14.5806 18.1941 14.3064 18.3151C14.0375 18.4303 13.8082 18.6217 13.6467 18.8656C13.4852 19.1095 13.3985 19.3953 13.3973 19.6878V19.8423C13.3973 20.3246 13.2058 20.787 12.8648 21.128C12.5238 21.469 12.0613 21.6605 11.5791 21.6605C11.0969 21.6605 10.6345 21.469 10.2935 21.128C9.95251 20.787 9.76095 20.3246 9.76095 19.8423V19.7605C9.75392 19.4596 9.65652 19.1678 9.48142 18.923C9.30632 18.6782 9.06162 18.4917 8.77914 18.3878C8.50494 18.2668 8.20078 18.2307 7.90587 18.2842C7.61097 18.3376 7.33884 18.4782 7.12459 18.6878L7.07004 18.7423C6.90118 18.9114 6.70066 19.0455 6.47994 19.137C6.25921 19.2285 6.02262 19.2756 5.78368 19.2756C5.54474 19.2756 5.30815 19.2285 5.08743 19.137C4.8667 19.0455 4.66618 18.9114 4.49732 18.7423C4.32827 18.5735 4.19416 18.373 4.10266 18.1522C4.01117 17.9315 3.96407 17.6949 3.96407 17.456C3.96407 17.217 4.01117 16.9804 4.10266 16.7597C4.19416 16.539 4.32827 16.3385 4.49732 16.1696L4.55186 16.1151C4.76144 15.9008 4.90203 15.6287 4.9555 15.3338C5.00898 15.0389 4.97288 14.7347 4.85186 14.4605C4.73662 14.1916 4.54528 13.9623 4.30138 13.8008C4.05748 13.6393 3.77167 13.5526 3.47914 13.5514H3.32459C2.84238 13.5514 2.37992 13.3599 2.03894 13.0189C1.69797 12.6779 1.50641 12.2155 1.50641 11.7332C1.50641 11.251 1.69797 10.7886 2.03894 10.4476C2.37992 10.1066 2.84238 9.91507 3.32459 9.91507H3.40641C3.70731 9.90803 3.99914 9.81063 4.24395 9.63553C4.48877 9.46043 4.67524 9.21574 4.77914 8.93325C4.90015 8.65905 4.93625 8.35489 4.88278 8.05999C4.8293 7.76508 4.68871 7.49296 4.47914 7.2787L4.42459 7.22416C4.25554 7.0553 4.12144 6.85477 4.02994 6.63405C3.93844 6.41333 3.89134 6.17673 3.89134 5.9378C3.89134 5.69886 3.93844 5.46226 4.02994 5.24154C4.12144 5.02082 4.25554 4.82029 4.42459 4.65143C4.59345 4.48238 4.79398 4.34828 5.0147 4.25678C5.23542 4.16528 5.47202 4.11818 5.71095 4.11818C5.94989 4.11818 6.18649 4.16528 6.40721 4.25678C6.62793 4.34828 6.82846 4.48238 6.99732 4.65143L7.05186 4.70598C7.26612 4.91556 7.53824 5.05615 7.83315 5.10962C8.12805 5.16309 8.43221 5.12699 8.70641 5.00598H8.77914C9.04802 4.89074 9.27733 4.69939 9.43886 4.45549C9.60038 4.21159 9.68706 3.92578 9.68823 3.63325V3.4787C9.68823 2.99649 9.87979 2.53403 10.2208 2.19306C10.5617 1.85208 11.0242 1.66052 11.5064 1.66052C11.9886 1.66052 12.4511 1.85208 12.7921 2.19306C13.133 2.53403 13.3246 2.99649 13.3246 3.4787V3.56052C13.3258 3.85306 13.4124 4.13886 13.574 4.38276C13.7355 4.62666 13.9648 4.81801 14.2337 4.93325C14.5079 5.05426 14.812 5.09036 15.1069 5.03689C15.4018 4.98342 15.674 4.84283 15.8882 4.63325L15.9428 4.5787C16.1116 4.40966 16.3122 4.27555 16.5329 4.18405C16.7536 4.09255 16.9902 4.04546 17.2291 4.04546C17.4681 4.04546 17.7047 4.09255 17.9254 4.18405C18.1461 4.27555 18.3466 4.40966 18.5155 4.5787C18.6845 4.74756 18.8187 4.94809 18.9102 5.16881C19.0017 5.38954 19.0487 5.62613 19.0487 5.86507C19.0487 6.10401 19.0017 6.3406 18.9102 6.56132C18.8187 6.78205 18.6845 6.98257 18.5155 7.15143L18.461 7.20598C18.2514 7.42023 18.1108 7.69236 18.0573 7.98726C18.0038 8.28216 18.0399 8.58633 18.161 8.86052V8.93325C18.2762 9.20213 18.4675 9.43145 18.7114 9.59297C18.9553 9.75449 19.2411 9.84117 19.5337 9.84234H19.6882C20.1704 9.84234 20.6329 10.0339 20.9739 10.3749C21.3149 10.7158 21.5064 11.1783 21.5064 11.6605C21.5064 12.1427 21.3149 12.6052 20.9739 12.9462C20.6329 13.2871 20.1704 13.4787 19.6882 13.4787H19.6064C19.3139 13.4799 19.0281 13.5666 18.7842 13.7281C18.5403 13.8896 18.3489 14.1189 18.2337 14.3878Z" stroke="" stroke-width="2" stroke-linecap="round" stroke-linejoin="round"/>
</svg>
