<svg width="21" height="21" viewBox="0 0 21 21" fill="none" xmlns="http://www.w3.org/2000/svg">
<path d="M11.9701 0.828619C10.896 0.398924 9.6977 0.398924 8.62359 0.828619L1.21374 3.79539C0.855807 3.93854 0.548923 4.18556 0.332607 4.50464C0.116292 4.82372 0.000449732 5.20026 2.69463e-08 5.58575V15.4269C-6.44374e-05 15.8129 0.115537 16.19 0.331886 16.5096C0.548234 16.8292 0.8554 17.0766 1.21374 17.2199L8.62359 20.1841C9.6977 20.6138 10.896 20.6138 11.9701 20.1841L19.3799 17.2199C19.7383 17.0766 20.0454 16.8292 20.2618 16.5096C20.4781 16.19 20.5937 15.8129 20.5937 15.4269V5.58575C20.5935 5.20004 20.4777 4.82322 20.2614 4.50389C20.0451 4.18455 19.738 3.93733 19.3799 3.7941L11.9701 0.828619ZM9.10239 2.02562C9.86956 1.71875 10.7254 1.71875 11.4925 2.02562L18.2177 4.71567L15.2844 5.88693L7.36352 2.72066L9.10239 2.02562ZM5.63108 3.41183L13.5519 6.5794L10.2968 7.88323L2.37599 4.71438L5.63108 3.41183ZM10.9404 9.01073L19.3065 5.66427V15.4257C19.3068 15.5544 19.2684 15.6802 19.1963 15.7869C19.1243 15.8936 19.0219 15.9763 18.9024 16.0242L11.4925 18.9884C11.3124 19.0596 11.1283 19.1145 10.9404 19.1531V9.01073ZM9.65327 9.01073V19.1531C9.4651 19.1147 9.28074 19.0596 9.10239 18.9884L1.69125 16.0242C1.57196 15.9764 1.4697 15.8939 1.39767 15.7875C1.32564 15.681 1.28713 15.5555 1.2871 15.4269V5.66555L9.65327 9.01073Z" fill="#111111"/>
</svg>
