<svg width="39" height="48" viewBox="0 0 39 48" fill="none" xmlns="http://www.w3.org/2000/svg">
<g clip-path="url(#clip0_5125_388)">
<path d="M7.3727 1.14099C4.20642 1.6099 1.92738 4.28659 1.92394 7.48505C1.91589 16.5552 1.91244 25.6254 1.92738 34.6955C1.93083 36.4723 2.73533 37.8492 4.29721 38.7054C4.90403 39.0375 5.60969 39.1927 6.26823 39.4271C6.18778 39.5133 6.07745 39.6374 5.96137 39.757C4.10873 41.6682 2.25608 43.5795 0.403433 45.4896C0.0873796 45.8148 -0.125238 46.1711 0.0827824 46.64C0.285057 47.0963 0.663171 47.2101 1.13208 47.2078C3.15137 47.1974 5.17067 47.1882 7.18996 47.2135C7.73932 47.2204 8.11169 47.0342 8.42314 46.5918C9.20466 45.4781 10.0218 44.3897 10.8056 43.2784C10.9665 43.0497 11.1355 42.975 11.4078 42.9761C16.7313 42.9842 22.056 42.9842 27.3794 42.9761C27.6679 42.9761 27.8472 43.052 28.0184 43.2968C28.8103 44.4219 29.6286 45.5275 30.4342 46.6435C30.6561 46.9515 30.902 47.2055 31.3215 47.2055C33.4787 47.2032 35.6359 47.2055 37.7931 47.2032C38.1839 47.2032 38.4608 47.0078 38.6275 46.663C38.7907 46.3263 38.7309 46.0068 38.508 45.7183C38.3953 45.5735 38.2666 45.4425 38.139 45.3103C36.3623 43.4542 34.5832 41.5993 32.8064 39.7432C32.6937 39.6248 32.5891 39.4995 32.4443 39.3363C32.7972 39.2685 33.0983 39.2363 33.3845 39.1524C35.5026 38.5249 36.7967 36.8481 36.799 34.6484C36.8093 25.5633 36.8128 16.4771 36.7944 7.39195C36.7886 4.48656 34.7969 1.89952 31.972 1.2881C30.0079 0.862868 27.9909 0.683579 25.9969 0.406602C25.3785 0.321555 24.7556 0.277882 24.1339 0.21582C20.9205 0.21582 17.7082 0.21582 14.4948 0.21582C14.3776 0.243403 14.2615 0.283628 14.142 0.29742C11.8848 0.575546 9.6207 0.807702 7.3727 1.14099ZM9.7724 41.559C8.92193 42.7336 8.07721 43.9105 7.21294 45.0759C7.11181 45.2115 6.91298 45.3551 6.75668 45.3586C5.58211 45.3827 4.40639 45.3712 3.16057 45.3712C3.26285 45.2391 3.32147 45.1437 3.39847 45.0655C5.18216 43.2221 6.96815 41.3798 8.75643 39.5409C8.84723 39.4478 8.97135 39.3271 9.08283 39.3237C9.82412 39.3041 10.5654 39.3133 11.394 39.3133C10.8194 40.1098 10.2965 40.835 9.7724 41.559ZM12.3882 41.1108C12.8088 40.5258 13.1984 39.9684 13.6133 39.4294C13.6777 39.3455 13.8535 39.3156 13.9776 39.3156C17.599 39.3099 21.2204 39.3087 24.843 39.3191C24.9832 39.3191 25.1717 39.403 25.2567 39.5122C25.6498 40.0167 26.0152 40.5431 26.4267 41.112C21.733 41.1108 17.0922 41.1108 12.3882 41.1108ZM35.4762 45.2069C35.5037 45.2356 35.5141 45.2793 35.5589 45.3701C34.3349 45.3701 33.1489 45.3747 31.9639 45.362C31.8663 45.3609 31.7387 45.2747 31.6766 45.1908C30.2848 43.2772 28.8988 41.3579 27.5139 39.4386C27.5001 39.4191 27.507 39.3846 27.4978 39.311C28.2288 39.311 28.9563 39.3041 29.6826 39.3179C29.786 39.3202 29.9102 39.4007 29.9872 39.48C31.8214 41.3867 33.6488 43.2968 35.4762 45.2069ZM23.165 2.09835C25.8451 2.15581 28.4931 2.496 31.1284 2.96376C33.3822 3.36371 34.9613 5.26693 34.9659 7.65169C34.9739 12.1167 34.9682 16.5816 34.9682 21.0478C34.9682 25.4828 34.9682 29.9168 34.9682 34.3519C34.9682 36.3585 33.8511 37.4791 31.8479 37.4791C23.4972 37.4802 15.1465 37.4802 6.79575 37.4791C5.31777 37.4791 4.25469 36.7573 3.89956 35.4908C3.80646 35.1575 3.76394 34.799 3.76394 34.4519C3.75705 25.5518 3.7559 16.6517 3.76049 7.75283C3.76164 5.09224 5.37639 3.35682 8.08295 2.86377C13.0812 1.95009 18.1185 1.98917 23.165 2.09835Z" fill=""/>
<path d="M5.59266 8.77586C5.59151 13.6534 5.59151 18.531 5.59266 23.4074C5.59266 24.3176 5.89607 24.6245 6.79481 24.6245C10.9851 24.6256 15.1754 24.6245 19.3645 24.6245C23.5387 24.6245 27.7141 24.6245 31.8883 24.6245C32.8365 24.6245 33.1307 24.3372 33.1307 23.4063C33.1318 18.5287 33.1318 13.6511 33.1307 8.77471C33.1307 7.85758 32.8342 7.55762 31.9331 7.55762C23.5525 7.55762 15.1731 7.55762 6.79251 7.55762C5.89607 7.55762 5.59266 7.86563 5.59266 8.77586ZM20.307 9.42865C23.9421 9.42865 27.5865 9.42865 31.2631 9.42865C31.2631 13.8545 31.2631 18.2931 31.2631 22.7718C27.5992 22.7718 23.9663 22.7718 20.307 22.7718C20.307 18.323 20.307 13.8959 20.307 9.42865ZM7.4522 9.41371C11.1081 9.41371 14.7421 9.41371 18.4095 9.41371C18.4095 13.85 18.4095 18.2896 18.4095 22.7604C14.7731 22.7604 11.1288 22.7604 7.4522 22.7604C7.4522 18.2942 7.4522 13.866 7.4522 9.41371Z" fill=""/>
<path d="M9.24506 27.3829C7.24645 27.3932 5.60182 29.039 5.59378 31.0376C5.58573 33.0523 7.24645 34.7187 9.26345 34.7199C11.2885 34.721 12.9354 33.0684 12.9308 31.0422C12.9285 29.0171 11.2712 27.3725 9.24506 27.3829ZM9.27953 32.8833C8.29115 32.8937 7.42689 32.0294 7.43608 31.041C7.44528 30.0469 8.31873 29.1941 9.30022 29.2194C10.2806 29.2447 11.1057 30.0906 11.0977 31.0617C11.0908 32.0363 10.2541 32.8741 9.27953 32.8833Z" fill=""/>
<path d="M29.4503 27.3828C27.4505 27.3886 25.8036 29.0286 25.7887 31.0272C25.7749 33.0419 27.431 34.713 29.448 34.7199C31.473 34.7256 33.1257 33.0787 33.1268 31.0525C33.128 29.0263 31.4765 27.3782 29.4503 27.3828ZM29.4468 32.8833C28.4688 32.8718 27.6379 32.0363 27.6298 31.0594C27.6229 30.071 28.4883 29.2079 29.4756 29.2194C30.4513 29.2309 31.2868 30.0699 31.2914 31.0433C31.2983 32.0328 30.4329 32.8959 29.4468 32.8833Z" fill=""/>
<path d="M15.8785 5.71747C16.4658 5.71862 17.0542 5.71977 17.6415 5.71862C18.2288 5.71862 18.8172 5.71747 19.4045 5.71747C20.5492 5.71747 21.695 5.71977 22.8397 5.71632C23.5454 5.71403 23.9545 5.36464 23.9442 4.78195C23.9338 4.2211 23.5316 3.88666 22.8478 3.88551C20.5273 3.88321 18.2058 3.88321 15.8854 3.88551C15.1889 3.88666 14.7625 4.24984 14.7752 4.81988C14.789 5.37499 15.2039 5.71632 15.8785 5.71747Z" fill=""/>
<path d="M22.8662 28.3004C20.5297 28.297 18.1943 28.297 15.8578 28.3004C15.1913 28.3016 14.7752 28.6613 14.7764 29.2176C14.7775 29.7738 15.1936 30.1278 15.8624 30.1301C16.4428 30.1324 17.0232 30.1324 17.6025 30.1324C18.1828 30.1324 18.7632 30.1312 19.3436 30.1312C19.9309 30.1312 20.5193 30.1324 21.1066 30.1324C21.6939 30.1324 22.2823 30.1324 22.8696 30.1301C23.5431 30.1278 23.9465 29.7784 23.9454 29.213C23.9454 28.6487 23.542 28.3016 22.8662 28.3004Z" fill=""/>
<path d="M22.8582 31.9719C20.5217 31.9696 18.1864 31.9685 15.8499 31.9719C15.1879 31.9731 14.7696 32.3408 14.7765 32.8971C14.7833 33.451 15.1982 33.8004 15.8706 33.8016C16.451 33.8039 17.0313 33.8039 17.6106 33.8039C18.1898 33.8039 18.7714 33.8027 19.3506 33.8027C19.931 33.8027 20.5114 33.8027 21.0918 33.8039C21.6722 33.8039 22.2525 33.8039 22.8318 33.8027C23.5432 33.8016 23.95 33.4591 23.9454 32.8775C23.9408 32.3155 23.5363 31.9731 22.8582 31.9719Z" fill=""/>
<path d="M11.9975 5.71495C12.5112 5.72759 12.9296 5.31844 12.9307 4.80357C12.9307 4.28869 12.5135 3.87839 11.9986 3.88988C11.5102 3.90138 11.1045 4.31397 11.1045 4.80127C11.1045 5.28971 11.509 5.70346 11.9975 5.71495Z" fill=""/>
<path d="M26.7234 5.71483C27.236 5.70564 27.636 5.2804 27.6176 4.76438C27.6003 4.27248 27.1877 3.88173 26.6936 3.88977C26.2051 3.89667 25.7971 4.30696 25.7925 4.79426C25.7879 5.29879 26.2166 5.72403 26.7234 5.71483Z" fill=""/>
</g>
<defs>
<clipPath id="clip0_5125_388">
<rect width="38.7206" height="47" fill="" transform="translate(0 0.213867)"/>
</clipPath>
</defs>
</svg>
