<svg width="59" height="41" viewBox="0 0 59 41" fill="none" xmlns="http://www.w3.org/2000/svg">
<g clip-path="url(#clip0_5125_274)">
<path d="M48.9768 16.9148C46.74 16.9325 44.5018 16.9189 42.2649 16.9189C42.0641 16.9189 41.8632 16.9189 41.6256 16.9189C41.6256 15.4693 41.6528 14.1052 41.6134 12.7425C41.5958 12.1452 41.5184 11.5263 41.3365 10.9603C40.6687 8.89855 38.8201 7.6539 36.4828 7.64983C32.0077 7.64304 27.534 7.64168 23.059 7.65661C22.6246 7.65797 22.455 7.5426 22.3382 7.10147C21.1642 2.68206 16.9375 -0.204941 12.5072 0.354272C8.83976 0.817115 5.82381 3.40958 4.82754 6.9576C3.8367 10.4825 5.099 14.2518 8.0403 16.5565C8.14753 16.6407 8.24118 16.7397 8.43528 16.9189C8.11902 16.9189 7.93579 16.9189 7.75119 16.9189C5.53334 16.9189 3.31414 16.9148 1.09629 16.9216C0.379626 16.9243 -0.00992241 17.2691 -0.000421226 17.8582C0.00907996 18.4269 0.391842 18.7621 1.0705 18.7635C3.87606 18.7689 6.68299 18.7662 9.48855 18.7662C9.69079 18.7662 9.89303 18.7662 10.1007 18.7662C10.1007 19.4137 10.1007 19.9878 10.1007 20.5986C8.94155 20.5986 7.82584 20.5959 6.70877 20.5999C5.95818 20.6027 5.54827 20.9447 5.55099 21.5473C5.55506 22.1283 5.95682 22.4744 6.66534 22.4852C7.32907 22.4948 7.99279 22.488 8.65652 22.488C9.13972 22.488 9.62428 22.488 10.1048 22.488C10.1048 23.1381 10.1048 23.6973 10.1048 24.3149C8.80311 24.3149 7.53674 24.3149 6.27036 24.3149C4.52622 24.3149 2.78207 24.3095 1.03792 24.319C0.36741 24.3231 -0.0112797 24.6827 -0.00177854 25.2555C0.00772265 25.8242 0.389127 26.1581 1.06914 26.1581C3.87471 26.1622 6.68163 26.1609 9.48719 26.1609C9.68943 26.1609 9.89031 26.1609 10.1401 26.1609C10.1401 27.4992 10.1468 28.7655 10.1292 30.0319C10.1278 30.1473 10.0057 30.3061 9.8971 30.3685C8.10545 31.3919 7.30871 32.9393 7.38472 34.9875C7.42544 36.095 7.65346 36.3583 8.76646 36.3597C11.1743 36.3611 13.5822 36.3638 15.9901 36.3556C16.3253 36.3543 16.5181 36.4031 16.6484 36.7873C17.3745 38.9237 19.2598 40.2728 21.4587 40.2864C23.6847 40.3013 25.5903 38.9522 26.3342 36.7981C26.4468 36.471 26.5785 36.3529 26.9246 36.3543C32.5561 36.3638 38.1876 36.3638 43.8177 36.3543C44.138 36.3543 44.2724 36.4588 44.3783 36.7615C45.1506 38.9508 47.0033 40.2864 49.2266 40.2864C51.4567 40.2864 53.3284 38.9481 54.079 36.7682C54.1984 36.4194 54.3654 36.3475 54.6857 36.3543C55.4444 36.3706 56.2032 36.3448 56.9606 36.3638C57.5171 36.3787 57.965 36.2212 58.2459 35.7136C58.2459 32.0733 58.2459 28.4316 58.2459 24.7913C57.2673 23.3064 56.2819 21.827 55.3128 20.3353C53.8252 18.036 51.724 16.8931 48.9768 16.9148ZM6.36537 9.32068C6.37895 5.39533 9.67857 2.13507 13.6121 2.16085C17.5605 2.18664 20.8099 5.46727 20.7841 9.3994C20.7583 13.3546 17.5008 16.5986 13.5618 16.5918C9.60121 16.5837 6.3518 13.3017 6.36537 9.32068ZM16.6877 33.4768C16.2928 34.4595 16.3213 34.4703 15.2408 34.4703C13.4628 34.4703 11.686 34.4703 9.90796 34.4703C9.70436 34.4703 9.50212 34.4703 9.29853 34.4703C9.31753 32.9746 10.4197 31.7693 11.8394 31.738C13.7464 31.696 15.6562 31.7272 17.5822 31.7272C17.2714 32.3244 16.9266 32.8795 16.6877 33.4768ZM21.4899 38.4391C19.7145 38.435 18.2405 36.9528 18.2432 35.1734C18.2459 33.3777 19.6942 31.9416 21.4981 31.9416C23.3087 31.943 24.7352 33.3709 24.7325 35.1829C24.7298 36.9786 23.2707 38.4432 21.4899 38.4391ZM39.686 34.4459C35.306 34.4459 30.9585 34.4459 26.7088 34.4459C26.2771 33.5107 25.874 32.6339 25.4668 31.753C30.1536 31.753 34.8961 31.753 39.6847 31.753C39.686 32.6298 39.686 33.508 39.686 34.4459ZM39.7308 29.3953C39.7308 29.5229 39.7132 29.6519 39.701 29.812C30.4848 29.812 21.2999 29.812 12.0783 29.812C12.0783 28.6122 12.0783 27.4272 12.0783 26.1595C12.6375 26.1595 13.1994 26.1663 13.76 26.1581C14.3966 26.1486 14.7699 25.8161 14.7848 25.2677C14.8011 24.6922 14.4237 24.3339 13.7587 24.3176C13.1967 24.304 12.6348 24.3149 12.0539 24.3149C12.0539 23.643 12.0539 23.1137 12.0539 22.5138C12.2629 22.5043 12.4611 22.488 12.6592 22.4866C14.4414 22.4839 16.2235 22.4852 18.0057 22.4852C18.1387 22.4852 18.2717 22.4907 18.4034 22.4825C19.0074 22.4445 19.4214 22.0658 19.4295 21.5501C19.439 21.0194 18.9965 20.6013 18.3722 20.5986C16.495 20.5891 14.6192 20.5945 12.742 20.5945C12.5357 20.5945 12.3294 20.5945 12.0824 20.5945C12.0824 19.9837 12.0824 19.4096 12.0824 18.7621C12.29 18.7621 12.4923 18.7621 12.6932 18.7621C16.2955 18.7621 19.8964 18.7621 23.4987 18.7621C23.6888 18.7621 23.8788 18.7689 24.0674 18.7554C24.5914 18.7187 24.9633 18.3359 24.966 17.8419C24.9673 17.3438 24.6063 16.9379 24.0756 16.9284C22.7495 16.9067 21.422 16.9162 20.0946 16.9148C19.6779 16.9135 19.2612 16.9148 18.664 16.9148C21.1832 15.0187 22.5092 12.6081 22.6572 9.53242C22.8689 9.53242 23.0535 9.53242 23.2381 9.53242C27.7118 9.53242 32.1855 9.5297 36.6592 9.53377C38.44 9.53513 39.7227 10.7784 39.7268 12.5579C39.7403 18.1731 39.7322 23.7842 39.7308 29.3953ZM49.2279 38.4405C47.4621 38.4364 45.9677 36.9379 45.9718 35.172C45.9758 33.3831 47.4363 31.9403 49.2388 31.9416C51.0535 31.943 52.4706 33.3655 52.4692 35.1843C52.4665 36.9854 51.0155 38.4445 49.2279 38.4405ZM56.3878 25.7347C56.4054 28.5212 56.3986 31.3078 56.3973 34.0957C56.3973 34.2043 56.3701 34.3129 56.3525 34.4445C55.6711 34.4445 55.0128 34.4445 54.3165 34.4445C54.0763 33.1863 53.5184 32.0991 52.5208 31.2643C49.6094 28.828 45.1547 30.2844 44.2778 33.9749C44.1842 34.3685 44.043 34.5002 43.644 34.4798C43.0033 34.4459 42.3586 34.4703 41.6718 34.4703C41.6718 29.2406 41.6718 24.0394 41.6718 18.7649C41.8727 18.7649 42.0749 18.7649 42.2758 18.7649C44.5126 18.7649 46.7495 18.7649 48.9877 18.7649C51.0413 18.7649 52.6375 19.5928 53.7492 21.3437C54.531 22.5748 55.3494 23.7815 56.1326 25.0112C56.2656 25.2229 56.3851 25.4917 56.3878 25.7347Z" fill=""/>
<path d="M14.7878 7.38549C14.7878 6.76113 14.7918 6.13676 14.7864 5.51104C14.781 4.79302 14.4539 4.41162 13.8553 4.41705C13.2798 4.42112 12.9513 4.7876 12.9445 5.47711C12.9337 6.51817 12.9595 7.55923 12.9283 8.60029C12.9201 8.87989 12.8156 9.19343 12.6595 9.42553C12.1519 10.1775 11.5886 10.8914 11.0687 11.6352C10.7457 12.0981 10.838 12.6491 11.2465 12.9505C11.6673 13.2627 12.1831 13.1961 12.5509 12.7455C12.8617 12.3655 13.1047 11.9271 13.4332 11.5647C14.5163 10.3689 15.1529 9.04413 14.7878 7.38549Z" fill=""/>
<path d="M49.7455 19.777C49.413 19.7145 49.071 19.6874 48.733 19.682C46.1935 19.6426 46.1622 19.5503 46.207 22.1753C46.2165 22.7237 46.2084 23.2734 46.2084 23.8231C46.2084 24.8642 46.1989 25.9066 46.2125 26.9477C46.2206 27.629 46.5464 28.0036 47.2033 28.0104C49.2678 28.0294 51.3322 28.0525 53.3954 28.0009C54.712 27.9684 55.3838 26.7156 54.7472 25.5605C54.036 24.2683 53.3071 22.9843 52.5498 21.7193C51.9145 20.6592 50.9644 20.0064 49.7455 19.777ZM48.1493 26.1143C48.1493 24.6294 48.1493 23.1282 48.1493 21.5958C49.5772 21.399 50.5871 21.8767 51.2359 23.1485C51.7422 24.1394 52.3326 25.0881 52.9189 26.1143C51.3051 26.1143 49.751 26.1143 48.1493 26.1143Z" fill=""/>
<path d="M46.2083 23.8236C46.2083 23.2738 46.2165 22.7255 46.207 22.1758C46.2151 22.7241 46.207 23.2738 46.2083 23.8236C46.2083 24.8646 46.1988 25.907 46.2124 26.9481C46.1988 25.9057 46.2083 24.8646 46.2083 23.8236Z" fill=""/>
<path d="M49.2308 33.668C48.4001 33.6693 47.7025 34.3629 47.7066 35.1827C47.7106 35.9985 48.4259 36.7097 49.2376 36.707C50.0615 36.7043 50.7415 36.0093 50.7402 35.1732C50.7388 34.3222 50.0819 33.6666 49.2308 33.668Z" fill=""/>
<path d="M21.4957 33.6699C20.6487 33.6699 19.9863 34.3323 19.9863 35.1793C19.9863 36.0154 20.6677 36.7076 21.4929 36.7089C22.3209 36.7103 22.9968 36.0235 22.9982 35.182C22.9996 34.3269 22.3453 33.6699 21.4957 33.6699Z" fill=""/>
</g>
<defs>
<clipPath id="clip0_5125_274">
<rect width="58.2504" height="40" fill="" transform="translate(0 0.285156)"/>
</clipPath>
</defs>
</svg>
