<svg width="52" height="52" viewBox="0 0 52 52" fill="none" xmlns="http://www.w3.org/2000/svg">
<path d="M26 51C39.8071 51 51 39.8071 51 26C51 12.1929 39.8071 1 26 1C12.1929 1 1 12.1929 1 26C1 39.8071 12.1929 51 26 51Z" stroke="white" stroke-width="2" stroke-linecap="round" stroke-linejoin="round"/>
<path d="M19.75 18.4133C19.75 17.2201 19.75 16.6235 19.9994 16.2904C20.2167 16.0002 20.5493 15.8186 20.9109 15.7928C21.326 15.7631 21.8278 16.0857 22.8315 16.731L34.633 24.3176C35.504 24.8775 35.9394 25.1575 36.0899 25.5135C36.2213 25.8245 36.2213 26.1755 36.0899 26.4865C35.9394 26.8425 35.504 27.1225 34.633 27.6824L22.8315 35.269C21.8278 35.9143 21.326 36.2369 20.9109 36.2072C20.5493 36.1814 20.2167 35.9998 19.9994 35.7096C19.75 35.3765 19.75 34.7799 19.75 33.5867V18.4133Z" stroke="white" stroke-width="2" stroke-linecap="round" stroke-linejoin="round"/>
</svg>
