<svg width="22" height="22" viewBox="0 0 22 22" fill="none" xmlns="http://www.w3.org/2000/svg">
<path d="M4.87343 17.8182C5.43106 16.5044 6.73301 15.583 8.25016 15.583H13.7502C15.2673 15.583 16.5693 16.5044 17.1269 17.8182M14.6668 8.70801C14.6668 10.7331 13.0252 12.3747 11.0002 12.3747C8.97512 12.3747 7.3335 10.7331 7.3335 8.70801C7.3335 6.68296 8.97512 5.04134 11.0002 5.04134C13.0252 5.04134 14.6668 6.68296 14.6668 8.70801ZM20.1668 10.9997C20.1668 16.0623 16.0628 20.1663 11.0002 20.1663C5.93755 20.1663 1.8335 16.0623 1.8335 10.9997C1.8335 5.93706 5.93755 1.83301 11.0002 1.83301C16.0628 1.83301 20.1668 5.93706 20.1668 10.9997Z" stroke="#FF131D" stroke-width="1.6" stroke-linecap="round" stroke-linejoin="round"/>
</svg>
